<svg width="444" height="113" xmlns="http://www.w3.org/2000/svg" xmlns:xlink="http://www.w3.org/1999/xlink" overflow="hidden"><defs><linearGradient x1="459.184" y1="563.633" x2="422.816" y2="541.367" gradientUnits="userSpaceOnUse" spreadMethod="reflect" id="fill0"><stop offset="0" stop-color="#FD3460"/><stop offset="0.3738" stop-color="#FE7755"/><stop offset="0.7571" stop-color="#FFB54B"/><stop offset="0.9392" stop-color="#FFCE47"/><stop offset="1" stop-color="#FFCE47"/></linearGradient><linearGradient x1="470.099" y1="550.04" x2="497.901" y2="554.96" gradientUnits="userSpaceOnUse" spreadMethod="reflect" id="fill1"><stop offset="0" stop-color="#FD3460"/><stop offset="0.5" stop-color="#FE8153"/><stop offset="1" stop-color="#FFCE47"/></linearGradient></defs><g transform="translate(-415 -499)"><path d="M462.949 507.5C479.332 521.181 498.12 520.332 503.5 520.332 502.307 598.114 493.287 582.695 462.949 604.5 432.612 582.695 423.612 598.114 422.5 520.332 427.738 520.332 446.527 521.181 462.949 507.5Z" stroke="#E4EEF0" stroke-width="11.25" stroke-miterlimit="8" fill="#E4EEF0" fill-rule="evenodd"/><path d="M433.924 528C432.118 529.777 431 532.236 431 534.952L431 565.917C431 569.781 433.295 573.285 436.864 574.869L441.664 577 441.664 556.335 451 563.604 451 544.716 433.924 528Z" fill="url(#fill0)" fill-rule="evenodd"/><path d="M433.924 528C432.118 529.777 431 532.236 431 534.952L431 565.917C431 569.781 433.295 573.285 436.864 574.869L441.664 577 441.664 556.335 451 563.604 451 544.716 433.924 528Z" fill="#075056" fill-rule="evenodd"/><path d="M451 526 451 545.489 451 564.29 451 571.315 451 581.75 458.385 585.229C459.225 585.624 460.106 585.878 461 586L461 526 451 526Z" fill="#075056" fill-rule="evenodd"/><path d="M491.015 528 478.532 540.019 474 535.656 474 547.979 478.532 552.578 483.224 548.06 483.224 577 488.059 574.866C491.679 573.266 494 569.782 494 565.947L494 534.938C494 532.229 492.859 529.776 491.015 528Z" fill="url(#fill1)" fill-rule="evenodd"/><path d="M491.015 528 478.532 540.019 474 535.656 474 547.979 478.532 552.578 483.224 548.06 483.224 577 488.059 574.866C491.679 573.266 494 569.782 494 565.947L494 534.938C494 532.229 492.859 529.776 491.015 528Z" fill="#FF5B04" fill-rule="evenodd"/><path d="M464 526 464 586C464.496 585.936 464.987 585.829 465.471 585.681L474 581.698 474 548.751 474 536.483 464 526Z" fill="#FF5B04" fill-rule="evenodd"/><path d="M687.644 576.091 684.203 585.121 691.295 585.121ZM537.829 576.091 534.388 585.121 541.48 585.121ZM826.387 572.151 826.387 583.378 827.047 583.378C828.484 583.378 829.513 583.297 830.133 583.134 830.753 582.971 831.335 582.634 831.88 582.123 833.097 580.961 833.705 579.519 833.705 577.799 833.705 576.881 833.528 576.018 833.175 575.21 832.821 574.402 832.332 573.737 831.706 573.214 831.219 572.819 830.64 572.543 829.968 572.386 829.296 572.229 828.339 572.151 827.099 572.151ZM662.48 572.151 662.48 583.378 663.141 583.378C664.578 583.378 665.606 583.297 666.226 583.134 666.846 582.971 667.428 582.634 667.973 582.123 669.19 580.961 669.798 579.519 669.798 577.799 669.798 576.881 669.622 576.018 669.268 575.21 668.915 574.402 668.425 573.737 667.799 573.214 667.313 572.819 666.733 572.543 666.061 572.386 665.389 572.229 664.433 572.151 663.193 572.151ZM818.93 571.61 827.308 571.61C828.71 571.61 829.632 571.616 830.072 571.628 831.868 571.709 833.276 571.953 834.296 572.36 835.443 572.825 836.333 573.519 836.964 574.443 837.596 575.367 837.911 576.439 837.911 577.66 837.911 579.473 837.228 580.926 835.86 582.018 835.443 582.344 834.982 582.611 834.478 582.82 833.974 583.029 833.299 583.227 832.453 583.413 833.149 583.703 833.664 584.006 834 584.319 834.267 584.563 834.51 584.869 834.73 585.235 834.951 585.601 835.281 586.249 835.721 587.179 836.753 589.305 837.532 590.86 838.059 591.842 838.587 592.824 839.03 593.536 839.389 593.978 839.679 594.338 839.96 594.588 840.232 594.727 840.504 594.867 840.878 594.96 841.353 595.006L841.353 595.407 835.582 595.407C835.292 594.768 835.107 594.361 835.026 594.187L833.809 591.415C833.079 589.753 832.343 588.283 831.602 587.004 830.86 585.737 830.182 584.871 829.568 584.407 829.255 584.174 828.919 584.008 828.56 583.91 828.2 583.811 827.76 583.761 827.239 583.761L826.387 583.761 826.387 589.933C826.387 591.119 826.453 591.999 826.587 592.574 826.72 593.15 826.966 593.623 827.325 593.995 827.638 594.321 828 594.562 828.412 594.719 828.823 594.876 829.365 594.971 830.037 595.006L830.037 595.407 818.93 595.407 818.93 595.006C819.602 594.971 820.144 594.876 820.555 594.719 820.966 594.562 821.328 594.321 821.641 593.995 822.012 593.623 822.261 593.152 822.389 592.583 822.516 592.013 822.58 591.13 822.58 589.933L822.58 577.084C822.58 575.887 822.516 575.004 822.389 574.434 822.261 573.865 822.012 573.394 821.641 573.022 821.328 572.685 820.963 572.441 820.546 572.29 820.129 572.139 819.59 572.046 818.93 572.011ZM796.68 571.61 815.366 571.61 815.662 577.363 815.262 577.381C815.111 576.404 814.862 575.597 814.515 574.957 814.167 574.318 813.663 573.755 813.002 573.266 812.458 572.86 811.814 572.572 811.073 572.403 810.331 572.235 809.346 572.151 808.118 572.151L804.137 572.151 804.137 582.611 805.18 582.611C806.235 582.611 807.028 582.541 807.561 582.402 808.094 582.262 808.529 582.012 808.865 581.652 809.19 581.315 809.43 580.917 809.586 580.458 809.743 579.999 809.873 579.322 809.978 578.427L810.377 578.444 810.308 587.789 809.908 587.789C809.804 586.894 809.65 586.173 809.448 585.627 809.245 585.081 808.964 584.616 808.604 584.232 808.257 583.86 807.805 583.587 807.249 583.413 806.692 583.239 805.985 583.151 805.128 583.151L804.137 583.151 804.137 587.144C804.137 588.736 804.178 589.895 804.259 590.622 804.34 591.348 804.496 591.955 804.728 592.444 805.122 593.28 805.722 593.893 806.527 594.283 807.333 594.672 808.396 594.867 809.717 594.867 811.107 594.867 812.272 594.69 813.211 594.335 814.149 593.981 814.914 593.431 815.505 592.688 815.922 592.188 816.261 591.618 816.522 590.979 816.783 590.34 817.023 589.497 817.244 588.451L817.643 588.469 817.417 595.407 796.68 595.407 796.68 595.006C797.34 594.971 797.876 594.878 798.288 594.727 798.699 594.576 799.067 594.332 799.392 593.995 799.751 593.623 799.997 593.15 800.13 592.574 800.264 591.999 800.33 591.119 800.33 589.933L800.33 577.084C800.33 575.899 800.264 575.018 800.13 574.443 799.997 573.868 799.751 573.394 799.392 573.022 799.079 572.685 798.717 572.441 798.305 572.29 797.894 572.139 797.352 572.046 796.68 572.011ZM770.762 571.61 782.235 571.61 782.235 572.011C781.366 572.093 780.74 572.226 780.358 572.412 779.998 572.586 779.709 572.857 779.489 573.223 779.268 573.589 779.158 573.987 779.158 574.417 779.158 574.719 779.187 574.987 779.245 575.219 779.303 575.451 779.477 575.957 779.767 576.736L784.912 590.77 789.901 578.462C790.596 576.73 790.944 575.469 790.944 574.679 790.944 574.237 790.874 573.824 790.735 573.441 790.596 573.057 790.411 572.761 790.179 572.552 789.947 572.354 789.692 572.215 789.414 572.133 789.136 572.052 788.777 572.011 788.336 572.011L788.336 571.61 796.072 571.61 796.072 572.011C795.434 572.069 794.881 572.226 794.411 572.482 793.942 572.738 793.493 573.127 793.064 573.65 792.775 574.022 792.47 574.53 792.152 575.175 791.833 575.82 791.396 576.817 790.839 578.165L783.712 595.407 782.982 595.407 776.064 577.59C775.16 575.254 774.436 573.772 773.891 573.144 773.544 572.749 773.118 572.462 772.614 572.281 772.109 572.101 771.492 572.011 770.762 572.011ZM711.389 571.61 718.933 571.61 726.46 590.247 734.265 571.61 741.409 571.61 741.409 572.011C740.748 572.046 740.218 572.136 739.818 572.281 739.419 572.427 739.051 572.668 738.715 573.005 738.46 573.249 738.268 573.519 738.141 573.816 738.014 574.112 737.927 574.487 737.88 574.94 737.799 575.544 737.759 576.259 737.759 577.084L737.759 589.933C737.759 591.13 737.828 592.019 737.967 592.6 738.106 593.182 738.355 593.646 738.715 593.995 739.352 594.611 740.25 594.948 741.409 595.006L741.409 595.407 730.301 595.407 730.301 595.006C730.974 594.971 731.515 594.876 731.927 594.719 732.338 594.562 732.706 594.321 733.031 593.995 733.39 593.623 733.636 593.15 733.769 592.574 733.903 591.999 733.969 591.119 733.969 589.933L733.969 574.347 725.017 595.407 724.652 595.407 715.752 574.661 715.752 589.933C715.752 591.13 715.819 592.013 715.952 592.583 716.085 593.152 716.332 593.623 716.691 593.995 717.015 594.332 717.383 594.576 717.795 594.727 718.206 594.878 718.742 594.971 719.403 595.006L719.403 595.407 711.389 595.407 711.389 595.006C712.05 594.971 712.586 594.878 712.997 594.727 713.408 594.576 713.776 594.332 714.101 593.995 714.46 593.623 714.706 593.15 714.84 592.574 714.973 591.999 715.039 591.119 715.039 589.933L715.039 577.084C715.039 576.55 715.022 576.044 714.987 575.568 714.929 574.708 714.796 574.08 714.588 573.685 714.298 573.138 713.901 572.735 713.397 572.473 712.893 572.212 712.224 572.058 711.389 572.011ZM655.023 571.61 663.401 571.61C664.804 571.61 665.725 571.616 666.165 571.628 667.962 571.709 669.37 571.953 670.389 572.36 671.537 572.825 672.426 573.519 673.058 574.443 673.689 575.367 674.005 576.439 674.005 577.66 674.005 579.473 673.321 580.926 671.954 582.018 671.537 582.344 671.076 582.611 670.572 582.82 670.068 583.029 669.393 583.227 668.547 583.413 669.242 583.703 669.758 584.006 670.094 584.319 670.36 584.563 670.604 584.869 670.824 585.235 671.044 585.601 671.374 586.249 671.815 587.179 672.846 589.305 673.625 590.86 674.153 591.842 674.68 592.824 675.123 593.536 675.482 593.978 675.772 594.338 676.053 594.588 676.325 594.727L677.198 594.944 677.68 594.867C677.949 594.791 678.2 594.687 678.432 594.553 678.895 594.286 679.347 593.856 679.788 593.263 680.158 592.786 680.52 592.173 680.874 591.424 681.227 590.674 681.694 589.55 682.273 588.05L688.635 571.61 689.626 571.61 697.188 589.933C697.755 591.316 698.207 592.304 698.543 592.897 698.879 593.49 699.244 593.937 699.638 594.239 699.917 594.448 700.235 594.608 700.595 594.719 700.954 594.829 701.493 594.925 702.211 595.006L702.211 595.407 690.791 595.407 690.791 595.006C691.822 594.913 692.541 594.739 692.946 594.483 693.665 594.03 694.024 593.402 694.024 592.6 694.024 592.124 693.862 591.485 693.537 590.683L693.242 589.951 691.573 585.836 683.925 585.836 683.021 588.242 682.586 589.323C682.065 590.601 681.804 591.607 681.804 592.339 681.804 592.769 681.9 593.17 682.091 593.542 682.282 593.914 682.54 594.216 682.864 594.448 683.316 594.762 683.896 594.948 684.603 595.006L684.603 595.407 677.447 595.407 676.815 595.407 671.676 595.407C671.386 594.768 671.201 594.361 671.119 594.187L669.903 591.415C669.172 589.753 668.437 588.283 667.695 587.004 666.953 585.737 666.275 584.871 665.661 584.407 665.348 584.174 665.012 584.008 664.653 583.91 664.294 583.811 663.853 583.761 663.332 583.761L662.48 583.761 662.48 589.933C662.48 591.119 662.547 591.999 662.68 592.574 662.813 593.15 663.06 593.623 663.419 593.995 663.732 594.321 664.094 594.562 664.505 594.719 664.917 594.876 665.458 594.971 666.131 595.006L666.131 595.407 655.023 595.407 655.023 595.006C655.695 594.971 656.237 594.876 656.648 594.719 657.06 594.562 657.422 594.321 657.735 593.995 658.106 593.623 658.355 593.152 658.482 592.583 658.61 592.013 658.673 591.13 658.673 589.933L658.673 577.084C658.673 575.887 658.61 575.004 658.482 574.434 658.355 573.865 658.106 573.394 657.735 573.022 657.422 572.685 657.057 572.441 656.64 572.29 656.222 572.139 655.684 572.046 655.023 572.011ZM623.132 571.61 630.676 571.61 638.202 590.247 646.007 571.61 653.151 571.61 653.151 572.011C652.491 572.046 651.961 572.136 651.561 572.281 651.161 572.427 650.793 572.668 650.457 573.005 650.202 573.249 650.011 573.519 649.884 573.816 649.756 574.112 649.669 574.487 649.623 574.94 649.542 575.544 649.501 576.259 649.501 577.084L649.501 589.933C649.501 591.13 649.571 592.019 649.71 592.6 649.849 593.182 650.098 593.646 650.457 593.995 651.095 594.611 651.993 594.948 653.151 595.006L653.151 595.407 642.044 595.407 642.044 595.006C642.716 594.971 643.258 594.876 643.669 594.719 644.081 594.562 644.449 594.321 644.773 593.995 645.132 593.623 645.379 593.15 645.512 592.574 645.645 591.999 645.712 591.119 645.712 589.933L645.712 574.347 636.76 595.407 636.395 595.407 627.495 574.661 627.495 589.933C627.495 591.13 627.561 592.013 627.695 592.583 627.828 593.152 628.074 593.623 628.433 593.995 628.758 594.332 629.126 594.576 629.537 594.727 629.949 594.878 630.485 594.971 631.145 595.006L631.145 595.407 623.132 595.407 623.132 595.006C623.792 594.971 624.328 594.878 624.74 594.727 625.151 594.576 625.519 594.332 625.843 593.995 626.203 593.623 626.449 593.15 626.582 592.574 626.715 591.999 626.782 591.119 626.782 589.933L626.782 577.084C626.782 576.55 626.765 576.044 626.73 575.568 626.672 574.708 626.539 574.08 626.33 573.685 626.04 573.138 625.644 572.735 625.139 572.473 624.635 572.212 623.966 572.058 623.132 572.011ZM610.524 571.61 621.631 571.61 621.631 572.011C620.971 572.046 620.435 572.139 620.023 572.29 619.612 572.441 619.244 572.685 618.919 573.022 618.467 573.487 618.189 574.132 618.085 574.957 618.016 575.573 617.981 576.282 617.981 577.084L617.981 589.933C617.981 590.898 618.027 591.659 618.12 592.217 618.213 592.775 618.363 593.222 618.572 593.559 618.873 594.024 619.261 594.37 619.736 594.597 620.211 594.823 620.843 594.96 621.631 595.006L621.631 595.407 610.524 595.407 610.524 595.006C611.196 594.971 611.737 594.876 612.149 594.719 612.56 594.562 612.922 594.321 613.235 593.995 613.606 593.623 613.855 593.152 613.983 592.583 614.11 592.013 614.174 591.13 614.174 589.933L614.174 577.084C614.174 575.887 614.11 575.004 613.983 574.434 613.855 573.865 613.606 573.394 613.235 573.022 612.922 572.685 612.557 572.441 612.14 572.29 611.723 572.139 611.184 572.046 610.524 572.011ZM583.824 571.61 590.516 571.61 604.631 589.672 604.631 577.084C604.631 575.887 604.564 575.004 604.431 574.434 604.298 573.865 604.051 573.394 603.692 573.022 603.368 572.685 603 572.441 602.588 572.29 602.177 572.139 601.641 572.046 600.98 572.011L600.98 571.61 608.994 571.61 608.994 572.011C607.835 572.011 606.931 572.348 606.282 573.022 605.923 573.394 605.677 573.868 605.543 574.443 605.41 575.018 605.344 575.893 605.344 577.067L605.344 595.407 604.561 595.407 588.187 574.766 588.187 589.933C588.187 591.13 588.254 592.013 588.387 592.583 588.52 593.152 588.766 593.623 589.126 593.995 589.45 594.332 589.818 594.576 590.229 594.727 590.641 594.878 591.177 594.971 591.837 595.006L591.837 595.407 583.824 595.407 583.824 595.006C584.484 594.971 585.02 594.878 585.432 594.727 585.843 594.576 586.211 594.332 586.536 593.995 586.895 593.623 587.141 593.15 587.274 592.574 587.408 591.999 587.474 591.119 587.474 589.933L587.474 577.067C587.474 575.893 587.408 575.018 587.274 574.443 587.141 573.868 586.895 573.394 586.536 573.022 586.223 572.685 585.861 572.441 585.449 572.29 585.038 572.139 584.496 572.046 583.824 572.011ZM552.674 571.61 563.782 571.61 563.782 572.011C563.144 572.046 562.623 572.133 562.217 572.273 561.812 572.412 561.452 572.633 561.14 572.935 560.745 573.319 560.479 573.801 560.34 574.382 560.201 574.963 560.131 575.864 560.131 577.084L560.131 587.144C560.131 588.689 560.172 589.84 560.253 590.596 560.334 591.351 560.491 591.967 560.722 592.444 561.128 593.28 561.73 593.893 562.53 594.283 563.33 594.672 564.39 594.867 565.711 594.867 567.09 594.867 568.252 594.684 569.196 594.318 570.141 593.952 570.914 593.385 571.517 592.618 571.923 592.095 572.256 591.502 572.516 590.84 572.777 590.177 573.018 589.305 573.238 588.225L573.655 588.259 573.429 595.407 552.674 595.407 552.674 594.989C553.845 594.989 554.748 594.658 555.386 593.995 555.745 593.623 555.991 593.15 556.125 592.574 556.258 591.999 556.325 591.119 556.325 589.933L556.325 577.084C556.325 575.852 556.252 574.943 556.107 574.356 555.962 573.769 555.693 573.29 555.299 572.918 554.974 572.616 554.612 572.395 554.213 572.255 553.813 572.116 553.3 572.034 552.674 572.011ZM538.82 571.61 539.811 571.61 547.372 589.933C547.94 591.316 548.392 592.304 548.728 592.897 549.064 593.49 549.429 593.937 549.823 594.239 550.102 594.448 550.42 594.608 550.779 594.719 551.139 594.829 551.678 594.925 552.396 595.006L552.396 595.407 540.976 595.407 540.976 595.006C542.007 594.913 542.726 594.739 543.131 594.483 543.85 594.03 544.209 593.402 544.209 592.6 544.209 592.124 544.047 591.485 543.722 590.683L543.427 589.951 541.758 585.836 534.109 585.836 533.206 588.242 532.771 589.323C532.25 590.601 531.989 591.607 531.989 592.339 531.989 592.769 532.084 593.17 532.276 593.542 532.467 593.914 532.725 594.216 533.049 594.448 533.501 594.762 534.081 594.948 534.787 595.006L534.787 595.407 527 595.407 527 595.006C527.614 594.971 528.153 594.82 528.617 594.553 529.08 594.286 529.532 593.856 529.972 593.263 530.343 592.786 530.705 592.173 531.059 591.424 531.412 590.674 531.879 589.55 532.458 588.05ZM756.856 571.558C755.628 571.558 754.565 571.773 753.667 572.203 752.768 572.634 751.937 573.331 751.172 574.297 750.257 575.448 749.55 576.862 749.052 578.536 748.553 580.211 748.304 582.008 748.304 583.927 748.304 587.3 749.22 590.144 751.05 592.459 751.873 593.494 752.745 594.247 753.667 594.718 754.588 595.189 755.651 595.425 756.856 595.425 758.073 595.425 759.142 595.192 760.063 594.727 760.985 594.262 761.862 593.506 762.697 592.459 764.528 590.133 765.443 587.266 765.443 583.858 765.443 581.985 765.191 580.214 764.687 578.545 764.183 576.876 763.473 575.46 762.558 574.297 761.816 573.343 760.99 572.648 760.081 572.212 759.171 571.776 758.096 571.558 756.856 571.558ZM850.195 571C850.74 571 851.244 571.055 851.708 571.166 852.171 571.276 852.791 571.494 853.568 571.819 854.147 572.052 854.541 572.2 854.749 572.264 854.958 572.328 855.143 572.36 855.306 572.36 855.711 572.36 855.984 572.063 856.123 571.471L856.523 571.471 856.644 578.392 856.244 578.392C855.932 577.288 855.663 576.442 855.438 575.855 855.212 575.268 854.943 574.725 854.63 574.225 854.064 573.319 853.439 572.647 852.757 572.212 852.074 571.776 851.287 571.558 850.397 571.558 849.101 571.558 848.077 572 847.325 572.884 847.013 573.245 846.767 573.669 846.588 574.158 846.409 574.647 846.319 575.135 846.319 575.624 846.319 577.567 847.563 579.132 850.051 580.319L852.498 581.505C854.384 582.401 855.744 583.39 856.577 584.472 857.526 585.682 858 587.09 858 588.695 858 589.762 857.786 590.782 857.357 591.756 856.754 593.113 855.85 594.159 854.645 594.896 853.44 595.632 852.02 596 850.386 596 848.891 596 847.455 595.704 846.076 595.111 845.357 594.797 844.928 594.617 844.789 594.57 844.65 594.524 844.494 594.501 844.32 594.501 843.764 594.501 843.381 594.78 843.173 595.338L842.773 595.338 842.825 588.137 843.225 588.155C843.711 589.987 844.291 591.43 844.963 592.485 846.226 594.433 847.814 595.407 849.726 595.407 851.059 595.407 852.159 594.96 853.029 594.065 853.898 593.17 854.332 592.037 854.332 590.665 854.332 590.073 854.237 589.468 854.046 588.852 853.854 588.236 853.596 587.707 853.272 587.266 852.936 586.812 852.464 586.377 851.855 585.958 851.247 585.54 850.317 585.011 849.065 584.372 847.964 583.814 847.121 583.343 846.536 582.96 845.951 582.576 845.479 582.187 845.12 581.792 844.123 580.699 843.625 579.368 843.625 577.799 843.625 576.835 843.819 575.905 844.207 575.01 844.595 574.115 845.137 573.348 845.832 572.709 847.061 571.57 848.515 571 850.195 571ZM757.03 571C758.815 571 760.541 571.393 762.21 572.178 763.879 572.963 765.339 574.071 766.591 575.501 768.63 577.827 769.65 580.473 769.65 583.439 769.65 584.928 769.383 586.364 768.85 587.748 768.317 589.132 767.541 590.394 766.521 591.534 765.27 592.953 763.789 594.052 762.08 594.831 760.37 595.61 758.583 596 756.717 596 754.875 596 753.113 595.622 751.433 594.866 749.753 594.11 748.304 593.04 747.087 591.656 746.125 590.574 745.387 589.344 744.871 587.966 744.355 586.588 744.097 585.154 744.097 583.666 744.097 581.712 744.515 579.9 745.349 578.231 746.183 576.562 747.4 575.106 748.999 573.861 750.193 572.942 751.479 572.236 752.858 571.742 754.237 571.247 755.628 571 757.03 571Z" fill="#075056" fill-rule="evenodd"/><path d="M743.362 535.612C741.368 536.672 740.37 538.222 740.37 540.264 740.37 542.098 741.286 543.016 743.117 543.016L743.656 543.016C745.52 543.016 746.452 542.124 746.452 540.341 746.452 538.248 745.422 536.672 743.362 535.612ZM793.549 535.574C791.522 535.574 790.508 536.904 790.508 539.566 790.508 542.382 791.522 543.791 793.549 543.791 795.609 543.791 796.639 542.382 796.639 539.566 796.639 536.904 795.609 535.574 793.549 535.574ZM683.996 535.574C681.969 535.574 680.955 536.517 680.955 538.403 680.955 539.23 681.233 540.025 681.789 540.787 682.345 541.549 683.081 542.111 683.996 542.473 684.879 542.111 685.598 541.549 686.154 540.787 686.71 540.025 686.988 539.243 686.988 538.442 686.988 536.53 685.991 535.574 683.996 535.574ZM562.656 531 562.656 541.039C562.656 543.442 561.708 545.315 559.812 546.659 558.144 547.847 556.003 548.442 553.387 548.442L535.877 548.442C533.033 548.442 530.793 547.68 529.158 546.155 527.719 544.837 527 543.132 527 541.039L527 537.473 534.112 534.488 534.112 540.729C534.112 541.581 534.316 542.176 534.725 542.512 535.133 542.848 535.861 543.016 536.907 543.016L552.749 543.016C553.795 543.016 554.523 542.848 554.932 542.512 555.34 542.176 555.545 541.581 555.545 540.729L555.545 533.984ZM743.362 530.302C746.763 531.181 749.346 532.576 751.111 534.488 752.648 536.194 753.417 538.132 753.417 540.302 753.417 542.912 752.419 544.966 750.425 546.465 748.659 547.783 746.387 548.442 743.607 548.442L743.117 548.442C739.913 548.442 737.411 547.589 735.613 545.884 734.076 544.411 733.308 542.55 733.308 540.302 733.308 537.796 734.305 535.638 736.299 533.829 738.065 532.227 740.419 531.052 743.362 530.302ZM549.904 524.643C550.983 524.643 551.85 524.902 552.504 525.419 553.158 525.935 553.485 526.62 553.485 527.473 553.485 528.377 553.158 529.094 552.504 529.624 551.85 530.154 550.983 530.419 549.904 530.419 548.793 530.419 547.902 530.147 547.231 529.605 546.561 529.062 546.226 528.351 546.226 527.473 546.226 526.62 546.561 525.935 547.231 525.419 547.902 524.902 548.793 524.643 549.904 524.643ZM541.714 524.643C542.793 524.643 543.659 524.902 544.313 525.419 544.967 525.935 545.294 526.62 545.294 527.473 545.294 528.377 544.967 529.094 544.313 529.624 543.659 530.154 542.793 530.419 541.714 530.419 540.602 530.419 539.711 530.147 539.041 529.605 538.37 529.062 538.035 528.351 538.035 527.473 538.035 526.62 538.37 525.935 539.041 525.419 539.711 524.902 540.602 524.643 541.714 524.643ZM858 523.442 858 548.442 850.888 548.442 850.888 526.426ZM842.471 523.442 842.471 539.992C842.471 542.628 841.457 544.721 839.43 546.271 837.566 547.718 835.098 548.442 832.024 548.442L831.425 548.442 828.493 548.442 825.98 548.442C823.692 548.442 821.795 548.003 820.291 547.124 818.722 548.003 816.809 548.442 814.553 548.442L811.353 548.442 809.06 548.442 805.909 548.442C803.685 548.442 801.838 548.028 800.366 547.202 798.666 548.545 796.394 549.217 793.549 549.217 790.737 549.217 788.481 548.558 786.781 547.24 785.244 548.041 783.396 548.442 781.239 548.442L778.389 548.442 775.745 548.442 772.896 548.442C772.144 548.442 771.359 548.377 770.542 548.248 769.79 551.633 767.681 553.959 764.215 555.225 762.842 555.742 761.354 556 759.752 556 757.594 556 755.485 555.548 753.425 554.643L753.425 549.76C755.125 550.509 756.776 550.884 758.378 550.884 759.196 550.884 759.948 550.78 760.635 550.574 762.629 550.031 763.626 548.584 763.626 546.233L763.626 533.984 770.738 531 770.738 531.039 770.787 531 770.787 541.426C770.951 542.486 771.882 543.016 773.583 543.016L775.745 543.016 778.389 543.016 780.552 543.016C781.598 543.016 782.334 542.848 782.759 542.512 783.184 542.176 783.396 541.594 783.396 540.767L783.396 539.682C783.396 536.607 784.41 534.23 786.437 532.55 788.236 531.052 790.606 530.302 793.549 530.302 796.917 530.302 799.516 531.271 801.347 533.209 802.917 534.863 803.718 537.021 803.751 539.682L803.751 540.767C803.751 541.62 803.955 542.208 804.364 542.531 804.772 542.854 805.5 543.016 806.546 543.016L809.06 543.016 811.353 543.016 813.866 543.016C814.912 543.016 815.648 542.848 816.073 542.512 816.498 542.176 816.711 541.594 816.711 540.767L816.711 533.984 823.822 531 823.822 540.767C823.822 541.594 824.035 542.176 824.46 542.512 824.885 542.848 825.621 543.016 826.667 543.016L828.493 543.016 831.425 543.016 831.681 543.016C833.054 543.016 834.01 542.789 834.55 542.337 835.09 541.885 835.359 541.09 835.359 539.953L835.359 526.426ZM662.786 523.442 662.786 540.767C662.786 541.594 662.999 542.176 663.424 542.512 663.849 542.848 664.584 543.016 665.631 543.016L668.399 543.016 671.222 543.016 675.511 543.016C674.563 541.594 674.089 540.186 674.089 538.791 674.089 536.181 675.053 534.088 676.983 532.512 678.781 531.039 681.119 530.302 683.996 530.302 687.266 530.302 689.816 531.245 691.647 533.132 693.151 534.656 693.903 536.543 693.903 538.791 693.903 540.186 693.429 541.594 692.481 543.016L697.087 543.016 699.544 543.016 701.893 543.016C702.94 543.016 703.675 542.848 704.1 542.512 704.525 542.176 704.738 541.594 704.738 540.767L704.738 533.984 711.85 531 711.85 541C711.85 543.403 710.901 545.289 709.005 546.659 707.337 547.848 705.196 548.442 702.58 548.442L699.544 548.442 697.087 548.442 688.214 548.442C686.547 548.442 685.141 548.339 683.996 548.132 682.819 548.339 681.413 548.442 679.778 548.442L671.222 548.442 668.399 548.442 665.729 548.442C664.552 548.442 663.391 548.3 662.247 548.016 661.396 550.548 659.614 552.525 656.901 553.946 654.481 555.212 651.653 555.845 648.416 555.845 643.609 555.845 639.898 554.618 637.282 552.163 635.288 550.251 634.29 548.003 634.29 545.419 634.29 543.455 634.846 541.711 635.958 540.186L642.971 538.946C641.729 540.599 641.108 542.486 641.108 544.605 641.108 546.413 641.753 547.835 643.045 548.868 644.337 549.902 646.127 550.419 648.416 550.419 650.639 550.419 652.396 549.921 653.688 548.926 654.979 547.932 655.625 546.581 655.625 544.876L655.625 526.426ZM613.696 523.442 613.696 548.442 606.584 548.442 606.584 526.426ZM578.531 523.442 578.531 540.767C578.531 541.594 578.743 542.176 579.168 542.512 579.593 542.848 580.329 543.016 581.375 543.016L583.263 543.016 586.182 543.016 588.07 543.016C589.116 543.016 589.852 542.848 590.277 542.512 590.702 542.176 590.914 541.594 590.914 540.767L590.914 533.984 598.026 531 598.026 541C598.026 543.403 597.078 545.289 595.181 546.659 593.546 547.847 591.405 548.442 588.756 548.442L586.182 548.442 583.263 548.442 580.689 548.442C577.68 548.442 575.326 547.68 573.626 546.155 572.155 544.811 571.419 543.093 571.419 541L571.419 526.426ZM688.067 522.395C689.146 522.395 690.021 522.654 690.691 523.17 691.361 523.687 691.696 524.372 691.696 525.225 691.696 526.129 691.361 526.846 690.691 527.376 690.021 527.906 689.146 528.171 688.067 528.171 686.955 528.171 686.072 527.899 685.418 527.357 684.765 526.814 684.438 526.103 684.438 525.225 684.438 524.372 684.765 523.687 685.418 523.17 686.072 522.654 686.955 522.395 688.067 522.395ZM679.925 522.395C681.004 522.395 681.871 522.654 682.525 523.17 683.179 523.687 683.506 524.372 683.506 525.225 683.506 526.129 683.179 526.846 682.525 527.376 681.871 527.906 681.004 528.171 679.925 528.171 678.814 528.171 677.923 527.899 677.252 527.357 676.582 526.814 676.247 526.103 676.247 525.225 676.247 524.372 676.582 523.687 677.252 523.17 677.923 522.654 678.814 522.395 679.925 522.395ZM820.193 521.736C821.272 521.736 822.138 521.995 822.792 522.512 823.446 523.028 823.773 523.726 823.773 524.605 823.773 525.483 823.446 526.187 822.792 526.717 822.138 527.247 821.272 527.512 820.193 527.512 819.081 527.512 818.19 527.247 817.52 526.717 816.85 526.187 816.515 525.483 816.515 524.605 816.515 523.726 816.85 523.028 817.52 522.512 818.19 521.995 819.081 521.736 820.193 521.736ZM708.563 521.736C709.643 521.736 710.509 521.995 711.163 522.512 711.817 523.028 712.144 523.726 712.144 524.605 712.144 525.483 711.817 526.187 711.163 526.717 710.509 527.247 709.643 527.512 708.563 527.512 707.452 527.512 706.561 527.247 705.891 526.717 705.22 526.187 704.885 525.483 704.885 524.605 704.885 523.726 705.22 523.028 705.891 522.512 706.561 521.995 707.452 521.736 708.563 521.736ZM594.691 521.736C595.77 521.736 596.645 521.995 597.315 522.512 597.985 523.028 598.32 523.713 598.32 524.566 598.32 525.47 597.993 526.187 597.339 526.717 596.685 527.247 595.802 527.512 594.691 527.512 593.612 527.512 592.737 527.24 592.067 526.698 591.397 526.155 591.061 525.444 591.061 524.566 591.061 523.713 591.397 523.028 592.067 522.512 592.737 521.995 593.612 521.736 594.691 521.736ZM586.549 521.736C587.628 521.736 588.495 521.995 589.149 522.512 589.803 523.028 590.13 523.713 590.13 524.566 590.13 525.47 589.803 526.187 589.149 526.717 588.495 527.247 587.628 527.512 586.549 527.512 585.438 527.512 584.546 527.24 583.876 526.698 583.206 526.155 582.871 525.444 582.871 524.566 582.871 523.713 583.206 523.028 583.876 522.512 584.546 521.995 585.438 521.736 586.549 521.736ZM545.736 518.868C546.749 518.868 547.558 519.107 548.163 519.585 548.768 520.063 549.071 520.69 549.071 521.465 549.071 523.248 547.959 524.14 545.736 524.14 544.722 524.14 543.913 523.894 543.308 523.403 542.703 522.912 542.4 522.266 542.4 521.465 542.4 520.69 542.703 520.063 543.308 519.585 543.913 519.107 544.722 518.868 545.736 518.868ZM590.571 516C592.762 516 593.857 516.866 593.857 518.597 593.857 520.354 592.762 521.233 590.571 521.233 588.38 521.233 587.285 520.354 587.285 518.597 587.285 516.866 588.38 516 590.571 516Z" fill="#FF5B04" fill-rule="evenodd"/></g></svg>