<svg width="399" height="104" xmlns="http://www.w3.org/2000/svg" xmlns:xlink="http://www.w3.org/1999/xlink" overflow="hidden"><defs><linearGradient x1="157.221" y1="186.823" x2="125.779" y2="168.177" gradientUnits="userSpaceOnUse" spreadMethod="reflect" id="fill0"><stop offset="0" stop-color="#FD3460"/><stop offset="0.3738" stop-color="#FE7755"/><stop offset="0.7571" stop-color="#FFB54B"/><stop offset="0.9392" stop-color="#FFCE47"/><stop offset="1" stop-color="#FFCE47"/></linearGradient><linearGradient x1="167.509" y1="175.233" x2="192.491" y2="179.767" gradientUnits="userSpaceOnUse" spreadMethod="reflect" id="fill1"><stop offset="0" stop-color="#FD3460"/><stop offset="0.5" stop-color="#FE8153"/><stop offset="1" stop-color="#FFCE47"/></linearGradient></defs><g transform="translate(-118 -128)"><path d="M160.954 136.5C175.719 148.912 192.652 148.142 197.5 148.142 196.425 218.707 188.295 204.718 160.954 224.5 133.614 204.718 125.503 218.707 124.5 148.142 129.221 148.142 146.154 148.912 160.954 136.5Z" stroke="#E4EEF0" stroke-width="11.25" stroke-miterlimit="8" fill="#E4EEF0" fill-rule="evenodd"/><path d="M135.485 156C133.95 157.56 133 159.717 133 162.101L133 189.274C133 192.665 134.951 195.74 137.984 197.13L142.065 199 142.065 180.865 150 187.244 150 170.669 135.485 156Z" fill="url(#fill0)" fill-rule="evenodd"/><path d="M135.485 156C133.95 157.56 133 159.717 133 162.101L133 189.274C133 192.665 134.951 195.74 137.984 197.13L142.065 199 142.065 180.865 150 187.244 150 170.669 135.485 156Z" fill="#075056" fill-rule="evenodd"/><path d="M150 153 150 170.54 150 187.461 150 193.784 150 203.175 157.385 206.306C158.225 206.662 159.106 206.891 160 207L160 153 150 153Z" fill="#075056" fill-rule="evenodd"/><path d="M186.314 156 175.079 166.547 171 162.718 171 173.532 175.079 177.568 179.302 173.604 179.302 199 183.653 197.127C186.911 195.724 189 192.666 189 189.301L189 162.089C189 159.711 187.973 157.558 186.314 156Z" fill="url(#fill1)" fill-rule="evenodd"/><path d="M186.314 156 175.079 166.547 171 162.718 171 173.532 175.079 177.568 179.302 173.604 179.302 199 183.653 197.127C186.911 195.724 189 192.666 189 189.301L189 162.089C189 159.711 187.973 157.558 186.314 156Z" fill="#FF5B04" fill-rule="evenodd"/><path d="M162 153 162 207C162.446 206.942 162.889 206.846 163.324 206.713L171 203.128 171 173.476 171 162.435 162 153Z" fill="#FF5B04" fill-rule="evenodd"/><path d="M362.629 197.683 359.53 205.992 365.915 205.992ZM227.75 197.683 224.651 205.992 231.036 205.992ZM487.539 194.059 487.539 204.388 488.133 204.388C489.427 204.388 490.353 204.313 490.911 204.163 491.469 204.013 491.993 203.703 492.484 203.233 493.579 202.164 494.127 200.838 494.127 199.255 494.127 198.411 493.968 197.617 493.65 196.873 493.332 196.13 492.891 195.518 492.327 195.037 491.889 194.673 491.367 194.419 490.762 194.275 490.157 194.131 489.297 194.059 488.18 194.059ZM339.973 194.059 339.973 204.388 340.568 204.388C341.862 204.388 342.787 204.313 343.346 204.163 343.904 204.013 344.428 203.703 344.918 203.233 346.014 202.164 346.562 200.838 346.562 199.255 346.562 198.411 346.402 197.617 346.084 196.873 345.766 196.13 345.325 195.518 344.762 195.037 344.324 194.673 343.802 194.419 343.197 194.275 342.592 194.131 341.731 194.059 340.615 194.059ZM480.825 193.561 488.368 193.561C489.63 193.561 490.46 193.567 490.856 193.577 492.473 193.652 493.741 193.877 494.659 194.251 495.692 194.679 496.493 195.318 497.061 196.168 497.63 197.018 497.914 198.004 497.914 199.127 497.914 200.795 497.299 202.132 496.068 203.137 495.692 203.436 495.277 203.682 494.823 203.874 494.37 204.067 493.762 204.249 493 204.42 493.626 204.687 494.091 204.965 494.393 205.254 494.633 205.478 494.852 205.759 495.05 206.096 495.249 206.433 495.546 207.029 495.942 207.884 496.871 209.841 497.573 211.271 498.047 212.175 498.522 213.078 498.921 213.733 499.244 214.139 499.505 214.471 499.758 214.701 500.003 214.829 500.249 214.958 500.585 215.043 501.013 215.086L501.013 215.455 495.817 215.455C495.556 214.867 495.389 214.492 495.316 214.332L494.221 211.782C493.564 210.253 492.901 208.9 492.233 207.724 491.566 206.558 490.955 205.762 490.402 205.334 490.121 205.12 489.818 204.968 489.495 204.877 489.171 204.786 488.775 204.741 488.305 204.741L487.539 204.741 487.539 210.418C487.539 211.509 487.599 212.319 487.719 212.848 487.839 213.378 488.06 213.813 488.384 214.156 488.665 214.455 488.991 214.677 489.362 214.821 489.732 214.965 490.22 215.054 490.825 215.086L490.825 215.455 480.825 215.455 480.825 215.086C481.43 215.054 481.918 214.965 482.288 214.821 482.659 214.677 482.985 214.455 483.266 214.156 483.6 213.813 483.824 213.38 483.939 212.856 484.054 212.332 484.111 211.52 484.111 210.418L484.111 198.598C484.111 197.496 484.054 196.684 483.939 196.16 483.824 195.636 483.6 195.203 483.266 194.861 482.985 194.55 482.656 194.326 482.28 194.187 481.905 194.048 481.42 193.962 480.825 193.93ZM460.793 193.561 477.617 193.561 477.883 198.854 477.523 198.87C477.387 197.972 477.163 197.229 476.85 196.641 476.537 196.053 476.083 195.534 475.488 195.085 474.998 194.711 474.419 194.446 473.751 194.291 473.084 194.136 472.197 194.059 471.091 194.059L467.507 194.059 467.507 203.682 468.446 203.682C469.395 203.682 470.11 203.618 470.59 203.49 471.07 203.361 471.461 203.131 471.764 202.8 472.056 202.49 472.272 202.124 472.413 201.701 472.554 201.279 472.671 200.656 472.765 199.833L473.125 199.849 473.063 208.446 472.703 208.446C472.609 207.622 472.471 206.959 472.288 206.457 472.105 205.954 471.852 205.527 471.529 205.174 471.216 204.831 470.809 204.58 470.308 204.42 469.808 204.259 469.171 204.179 468.399 204.179L467.507 204.179 467.507 207.852C467.507 209.317 467.544 210.384 467.617 211.052 467.69 211.72 467.831 212.279 468.039 212.728 468.394 213.498 468.934 214.062 469.659 214.42 470.384 214.778 471.341 214.958 472.531 214.958 473.783 214.958 474.831 214.794 475.676 214.468 476.521 214.142 477.21 213.637 477.742 212.953 478.117 212.493 478.423 211.969 478.657 211.381 478.892 210.793 479.109 210.017 479.307 209.055L479.667 209.071 479.463 215.455 460.793 215.455 460.793 215.086C461.388 215.054 461.871 214.968 462.241 214.829 462.611 214.69 462.943 214.466 463.235 214.156 463.558 213.813 463.78 213.378 463.9 212.848 464.02 212.319 464.08 211.509 464.08 210.418L464.08 198.598C464.08 197.507 464.02 196.697 463.9 196.168 463.78 195.638 463.558 195.203 463.235 194.861 462.953 194.55 462.627 194.326 462.257 194.187 461.886 194.048 461.398 193.962 460.793 193.93ZM437.46 193.561 447.789 193.561 447.789 193.93C447.006 194.005 446.443 194.128 446.098 194.299 445.775 194.46 445.514 194.708 445.316 195.045 445.118 195.382 445.019 195.748 445.019 196.144 445.019 196.422 445.045 196.668 445.097 196.881 445.149 197.095 445.305 197.56 445.566 198.277L450.199 211.188 454.69 199.865C455.316 198.271 455.629 197.111 455.629 196.384 455.629 195.978 455.566 195.598 455.441 195.245 455.316 194.893 455.149 194.62 454.94 194.428 454.732 194.246 454.502 194.117 454.252 194.043 454.001 193.968 453.678 193.93 453.282 193.93L453.282 193.561 460.246 193.561 460.246 193.93C459.672 193.984 459.174 194.128 458.751 194.363 458.329 194.599 457.924 194.957 457.538 195.438 457.277 195.78 457.004 196.248 456.717 196.841 456.43 197.435 456.036 198.352 455.535 199.592L449.119 215.455 448.461 215.455 442.233 199.063C441.419 196.914 440.767 195.55 440.277 194.973 439.964 194.609 439.58 194.345 439.126 194.179 438.673 194.013 438.117 193.93 437.46 193.93ZM384.006 193.561 390.798 193.561 397.574 210.707 404.601 193.561 411.033 193.561 411.033 193.93C410.438 193.962 409.961 194.045 409.601 194.179 409.241 194.313 408.91 194.534 408.607 194.844 408.378 195.069 408.205 195.318 408.091 195.59 407.976 195.863 407.898 196.208 407.856 196.625 407.783 197.181 407.746 197.838 407.746 198.598L407.746 210.418C407.746 211.52 407.809 212.338 407.934 212.872 408.059 213.407 408.284 213.835 408.607 214.156 409.181 214.722 409.99 215.032 411.033 215.086L411.033 215.455 401.033 215.455 401.033 215.086C401.638 215.054 402.126 214.965 402.496 214.821 402.866 214.677 403.198 214.455 403.49 214.156 403.813 213.813 404.035 213.378 404.155 212.848 404.275 212.319 404.335 211.509 404.335 210.418L404.335 196.08 396.275 215.455 395.947 215.455 387.934 196.368 387.934 210.418C387.934 211.52 387.994 212.332 388.114 212.856 388.234 213.38 388.456 213.813 388.779 214.156 389.071 214.466 389.402 214.69 389.773 214.829 390.143 214.968 390.626 215.054 391.22 215.086L391.22 215.455 384.006 215.455 384.006 215.086C384.601 215.054 385.083 214.968 385.453 214.829 385.824 214.69 386.155 214.466 386.447 214.156 386.771 213.813 386.992 213.378 387.112 212.848 387.232 212.319 387.292 211.509 387.292 210.418L387.292 198.598C387.292 198.106 387.277 197.641 387.245 197.202 387.193 196.411 387.073 195.834 386.885 195.47 386.625 194.967 386.267 194.596 385.813 194.355 385.36 194.115 384.757 193.973 384.006 193.93ZM333.259 193.561 340.803 193.561C342.065 193.561 342.894 193.567 343.291 193.577 344.908 193.652 346.176 193.877 347.094 194.251 348.127 194.679 348.927 195.318 349.496 196.168 350.065 197.018 350.349 198.004 350.349 199.127 350.349 200.795 349.733 202.132 348.502 203.137 348.127 203.436 347.712 203.682 347.258 203.874 346.804 204.067 346.196 204.249 345.435 204.42 346.061 204.687 346.525 204.965 346.828 205.254 347.068 205.478 347.287 205.759 347.485 206.096 347.683 206.433 347.981 207.029 348.377 207.884 349.306 209.841 350.007 211.271 350.482 212.175 350.957 213.078 351.356 213.733 351.679 214.139 351.94 214.471 352.193 214.701 352.438 214.829L353.224 215.029 353.657 214.958C353.9 214.888 354.126 214.792 354.334 214.669 354.752 214.423 355.158 214.027 355.555 213.482 355.889 213.043 356.215 212.479 356.533 211.79 356.851 211.1 357.271 210.066 357.793 208.686L363.521 193.561 364.413 193.561 371.22 210.418C371.731 211.691 372.138 212.6 372.441 213.145 372.743 213.69 373.072 214.102 373.427 214.38 373.677 214.573 373.964 214.72 374.288 214.821 374.611 214.923 375.096 215.011 375.743 215.086L375.743 215.455 365.461 215.455 365.461 215.086C366.39 215 367.036 214.84 367.402 214.605 368.048 214.188 368.372 213.61 368.372 212.872 368.372 212.434 368.226 211.846 367.934 211.108L367.668 210.434 366.165 206.649 359.28 206.649 358.466 208.863 358.075 209.857C357.605 211.033 357.37 211.958 357.37 212.632 357.37 213.027 357.456 213.396 357.628 213.738 357.801 214.081 358.033 214.359 358.325 214.573 358.732 214.861 359.253 215.032 359.89 215.086L359.89 215.455 353.447 215.455 352.879 215.455 348.252 215.455C347.991 214.867 347.824 214.492 347.751 214.332L346.655 211.782C345.998 210.253 345.336 208.9 344.668 207.724 344 206.558 343.39 205.762 342.837 205.334 342.555 205.12 342.253 204.968 341.929 204.877 341.606 204.786 341.209 204.741 340.74 204.741L339.973 204.741 339.973 210.418C339.973 211.509 340.033 212.319 340.153 212.848 340.273 213.378 340.495 213.813 340.818 214.156 341.1 214.455 341.426 214.677 341.796 214.821 342.167 214.965 342.654 215.054 343.26 215.086L343.26 215.455 333.259 215.455 333.259 215.086C333.865 215.054 334.352 214.965 334.723 214.821 335.093 214.677 335.419 214.455 335.701 214.156 336.035 213.813 336.259 213.38 336.374 212.856 336.488 212.332 336.546 211.52 336.546 210.418L336.546 198.598C336.546 197.496 336.488 196.684 336.374 196.16 336.259 195.636 336.035 195.203 335.701 194.861 335.419 194.55 335.09 194.326 334.715 194.187 334.339 194.048 333.854 193.962 333.259 193.93ZM304.548 193.561 311.34 193.561 318.116 210.707 325.143 193.561 331.574 193.561 331.574 193.93C330.98 193.962 330.503 194.045 330.143 194.179 329.783 194.313 329.451 194.534 329.149 194.844 328.919 195.069 328.747 195.318 328.632 195.59 328.518 195.863 328.439 196.208 328.398 196.625 328.325 197.181 328.288 197.838 328.288 198.598L328.288 210.418C328.288 211.52 328.351 212.338 328.476 212.872 328.601 213.407 328.825 213.835 329.149 214.156 329.723 214.722 330.531 215.032 331.574 215.086L331.574 215.455 321.574 215.455 321.574 215.086C322.18 215.054 322.667 214.965 323.038 214.821 323.408 214.677 323.739 214.455 324.031 214.156 324.355 213.813 324.577 213.378 324.696 212.848 324.816 212.319 324.876 211.509 324.876 210.418L324.876 196.08 316.817 215.455 316.488 215.455 308.476 196.368 308.476 210.418C308.476 211.52 308.536 212.332 308.656 212.856 308.776 213.38 308.997 213.813 309.321 214.156 309.613 214.466 309.944 214.69 310.315 214.829 310.685 214.968 311.167 215.054 311.762 215.086L311.762 215.455 304.548 215.455 304.548 215.086C305.142 215.054 305.625 214.968 305.995 214.829 306.366 214.69 306.697 214.466 306.989 214.156 307.312 213.813 307.534 213.378 307.654 212.848 307.774 212.319 307.834 211.509 307.834 210.418L307.834 198.598C307.834 198.106 307.818 197.641 307.787 197.202 307.735 196.411 307.615 195.834 307.427 195.47 307.166 194.967 306.809 194.596 306.355 194.355 305.901 194.115 305.299 193.973 304.548 193.93ZM293.196 193.561 303.197 193.561 303.197 193.93C302.602 193.962 302.119 194.048 301.749 194.187 301.379 194.326 301.047 194.55 300.755 194.861 300.348 195.288 300.098 195.882 300.004 196.641 299.941 197.208 299.91 197.86 299.91 198.598L299.91 210.418C299.91 211.306 299.952 212.006 300.035 212.52 300.119 213.033 300.254 213.444 300.442 213.755 300.713 214.182 301.063 214.5 301.491 214.709 301.919 214.917 302.487 215.043 303.197 215.086L303.197 215.455 293.196 215.455 293.196 215.086C293.802 215.054 294.289 214.965 294.66 214.821 295.03 214.677 295.356 214.455 295.638 214.156 295.972 213.813 296.196 213.38 296.311 212.856 296.426 212.332 296.483 211.52 296.483 210.418L296.483 198.598C296.483 197.496 296.426 196.684 296.311 196.16 296.196 195.636 295.972 195.203 295.638 194.861 295.356 194.55 295.027 194.326 294.652 194.187 294.276 194.048 293.791 193.962 293.196 193.93ZM269.159 193.561 275.184 193.561 287.891 210.178 287.891 198.598C287.891 197.496 287.831 196.684 287.711 196.16 287.591 195.636 287.37 195.203 287.046 194.861 286.754 194.55 286.423 194.326 286.052 194.187 285.682 194.048 285.199 193.962 284.605 193.93L284.605 193.561 291.819 193.561 291.819 193.93C290.776 193.93 289.962 194.24 289.378 194.861 289.054 195.203 288.833 195.638 288.713 196.168 288.593 196.697 288.533 197.502 288.533 198.582L288.533 215.455 287.829 215.455 273.087 196.464 273.087 210.418C273.087 211.52 273.147 212.332 273.267 212.856 273.387 213.38 273.608 213.813 273.932 214.156 274.224 214.466 274.555 214.69 274.926 214.829 275.296 214.968 275.778 215.054 276.373 215.086L276.373 215.455 269.159 215.455 269.159 215.086C269.753 215.054 270.236 214.968 270.606 214.829 270.977 214.69 271.308 214.466 271.6 214.156 271.923 213.813 272.145 213.378 272.265 212.848 272.385 212.319 272.445 211.509 272.445 210.418L272.445 198.582C272.445 197.502 272.385 196.697 272.265 196.168 272.145 195.638 271.923 195.203 271.6 194.861 271.318 194.55 270.992 194.326 270.622 194.187 270.251 194.048 269.764 193.962 269.159 193.93ZM241.115 193.561 251.115 193.561 251.115 193.93C250.541 193.962 250.071 194.043 249.706 194.171 249.341 194.299 249.018 194.502 248.736 194.78 248.381 195.133 248.141 195.577 248.016 196.112 247.891 196.646 247.828 197.475 247.828 198.598L247.828 207.852C247.828 209.274 247.865 210.333 247.938 211.028 248.011 211.723 248.152 212.29 248.36 212.728 248.725 213.498 249.268 214.062 249.988 214.42 250.708 214.778 251.662 214.958 252.852 214.958 254.093 214.958 255.139 214.789 255.989 214.452 256.84 214.115 257.536 213.594 258.079 212.888 258.444 212.407 258.744 211.862 258.979 211.252 259.213 210.643 259.43 209.841 259.628 208.847L260.004 208.879 259.8 215.455 241.115 215.455 241.115 215.07C242.168 215.07 242.982 214.765 243.556 214.156 243.879 213.813 244.101 213.378 244.221 212.848 244.341 212.319 244.401 211.509 244.401 210.418L244.401 198.598C244.401 197.464 244.336 196.628 244.205 196.088 244.075 195.548 243.832 195.106 243.478 194.764 243.185 194.486 242.859 194.283 242.499 194.155 242.14 194.027 241.678 193.952 241.115 193.93ZM228.642 193.561 229.534 193.561 236.341 210.418C236.853 211.691 237.259 212.6 237.562 213.145 237.865 213.69 238.193 214.102 238.548 214.38 238.798 214.573 239.085 214.72 239.409 214.821 239.732 214.923 240.217 215.011 240.864 215.086L240.864 215.455 230.582 215.455 230.582 215.086C231.511 215 232.158 214.84 232.523 214.605 233.17 214.188 233.493 213.61 233.493 212.872 233.493 212.434 233.347 211.846 233.055 211.108L232.789 210.434 231.287 206.649 224.401 206.649 223.587 208.863 223.196 209.857C222.726 211.033 222.491 211.958 222.491 212.632 222.491 213.027 222.578 213.396 222.75 213.738 222.922 214.081 223.154 214.359 223.446 214.573 223.853 214.861 224.375 215.032 225.011 215.086L225.011 215.455 218 215.455 218 215.086C218.553 215.054 219.038 214.915 219.455 214.669 219.873 214.423 220.28 214.027 220.676 213.482 221.01 213.043 221.336 212.479 221.654 211.79 221.972 211.1 222.392 210.066 222.914 208.686ZM424.94 193.513C423.834 193.513 422.877 193.711 422.068 194.107 421.26 194.503 420.511 195.145 419.823 196.033 418.999 197.093 418.362 198.393 417.913 199.934 417.465 201.474 417.24 203.128 417.24 204.893 417.24 207.996 418.065 210.613 419.713 212.742 420.454 213.694 421.239 214.387 422.068 214.821 422.898 215.254 423.855 215.471 424.94 215.471 426.036 215.471 426.998 215.257 427.827 214.829 428.657 214.401 429.447 213.705 430.198 212.742 431.847 210.602 432.671 207.964 432.671 204.829 432.671 203.106 432.444 201.477 431.99 199.942 431.536 198.406 430.897 197.103 430.073 196.033 429.405 195.156 428.662 194.517 427.843 194.115 427.024 193.714 426.056 193.513 424.94 193.513ZM508.973 193C509.464 193 509.918 193.051 510.335 193.152 510.752 193.254 511.31 193.454 512.009 193.754 512.531 193.968 512.886 194.104 513.074 194.163 513.261 194.222 513.428 194.251 513.574 194.251 513.939 194.251 514.185 193.978 514.31 193.433L514.67 193.433 514.779 199.801 514.419 199.801C514.138 198.785 513.896 198.007 513.693 197.467 513.49 196.927 513.248 196.427 512.966 195.967 512.456 195.133 511.894 194.516 511.279 194.115 510.665 193.714 509.957 193.513 509.155 193.513 507.988 193.513 507.067 193.92 506.39 194.734 506.108 195.065 505.887 195.456 505.726 195.905 505.564 196.355 505.484 196.805 505.484 197.254 505.484 199.042 506.603 200.481 508.843 201.573L511.046 202.665C512.745 203.489 513.969 204.399 514.719 205.394 515.573 206.507 516 207.803 516 209.28 516 210.261 515.807 211.2 515.421 212.096 514.878 213.344 514.065 214.307 512.98 214.984 511.895 215.661 510.617 216 509.145 216 507.8 216 506.506 215.727 505.264 215.182 504.618 214.893 504.231 214.728 504.106 214.685 503.981 214.642 503.84 214.621 503.684 214.621 503.183 214.621 502.839 214.877 502.651 215.391L502.291 215.391 502.338 208.766 502.698 208.782C503.136 210.468 503.658 211.796 504.263 212.767 505.4 214.559 506.829 215.455 508.551 215.455 509.751 215.455 510.742 215.043 511.524 214.22 512.307 213.396 512.698 212.354 512.698 211.092 512.698 210.547 512.612 209.991 512.44 209.424 512.268 208.857 512.035 208.371 511.743 207.964 511.441 207.547 511.016 207.146 510.468 206.762 509.92 206.377 509.083 205.89 507.956 205.302 506.965 204.789 506.206 204.356 505.679 204.003 505.152 203.65 504.727 203.292 504.404 202.928 503.506 201.923 503.058 200.699 503.058 199.255 503.058 198.368 503.233 197.512 503.582 196.689 503.932 195.866 504.419 195.16 505.045 194.572 506.151 193.524 507.461 193 508.973 193ZM425.097 193C426.703 193 428.258 193.361 429.76 194.083 431.263 194.806 432.577 195.825 433.704 197.141 435.54 199.281 436.458 201.715 436.458 204.444 436.458 205.814 436.218 207.135 435.738 208.408 435.258 209.682 434.559 210.843 433.641 211.891 432.515 213.197 431.182 214.208 429.643 214.925 428.104 215.642 426.495 216 424.815 216 423.156 216 421.57 215.652 420.057 214.957 418.545 214.261 417.24 213.277 416.145 212.004 415.279 211.008 414.614 209.877 414.15 208.609 413.685 207.341 413.453 206.022 413.453 204.652 413.453 202.855 413.829 201.188 414.58 199.653 415.331 198.117 416.427 196.777 417.866 195.632 418.941 194.787 420.099 194.137 421.341 193.682 422.582 193.227 423.834 193 425.097 193Z" fill="#E4EEF0" fill-rule="evenodd"/><path d="M412.791 162.141C410.996 163.121 410.098 164.556 410.098 166.444 410.098 168.141 410.922 168.989 412.57 168.989L413.056 168.989C414.734 168.989 415.573 168.165 415.573 166.516 415.573 164.579 414.646 163.121 412.791 162.141ZM457.975 162.106C456.15 162.106 455.237 163.337 455.237 165.798 455.237 168.404 456.15 169.706 457.975 169.706 459.829 169.706 460.757 168.404 460.757 165.798 460.757 163.337 459.829 162.106 457.975 162.106ZM359.344 162.106C357.519 162.106 356.606 162.978 356.606 164.723 356.606 165.488 356.856 166.223 357.357 166.928 357.857 167.633 358.52 168.153 359.344 168.487 360.139 168.153 360.786 167.633 361.287 166.928 361.787 166.223 362.037 165.5 362.037 164.759 362.037 162.99 361.14 162.106 359.344 162.106ZM250.102 157.875 250.102 167.161C250.102 169.384 249.248 171.117 247.54 172.359 246.039 173.459 244.111 174.009 241.756 174.009L225.992 174.009C223.431 174.009 221.415 173.304 219.943 171.893 218.648 170.674 218 169.097 218 167.161L218 163.862 224.403 161.102 224.403 166.874C224.403 167.663 224.587 168.213 224.955 168.523 225.323 168.834 225.978 168.989 226.92 168.989L241.182 168.989C242.124 168.989 242.779 168.834 243.147 168.523 243.515 168.213 243.699 167.663 243.699 166.874L243.699 160.636ZM412.791 157.23C415.853 158.042 418.178 159.333 419.768 161.102 421.151 162.679 421.843 164.472 421.843 166.48 421.843 168.894 420.945 170.794 419.15 172.18 417.56 173.399 415.514 174.009 413.012 174.009L412.57 174.009C409.686 174.009 407.434 173.22 405.815 171.642 404.431 170.28 403.739 168.559 403.739 166.48 403.739 164.161 404.637 162.165 406.433 160.492 408.022 159.01 410.142 157.923 412.791 157.23ZM238.621 151.995C239.592 151.995 240.372 152.234 240.961 152.712 241.55 153.19 241.844 153.824 241.844 154.612 241.844 155.449 241.55 156.112 240.961 156.602 240.372 157.092 239.592 157.337 238.621 157.337 237.62 157.337 236.818 157.086 236.214 156.584 235.611 156.082 235.309 155.425 235.309 154.612 235.309 153.824 235.611 153.19 236.214 152.712 236.818 152.234 237.62 151.995 238.621 151.995ZM231.247 151.995C232.218 151.995 232.998 152.234 233.587 152.712 234.176 153.19 234.47 153.824 234.47 154.612 234.47 155.449 234.176 156.112 233.587 156.602 232.998 157.092 232.218 157.337 231.247 157.337 230.246 157.337 229.444 157.086 228.84 156.584 228.237 156.082 227.935 155.425 227.935 154.612 227.935 153.824 228.237 153.19 228.84 152.712 229.444 152.234 230.246 151.995 231.247 151.995ZM516 150.884 516 174.009 509.597 174.009 509.597 153.644ZM502.019 150.884 502.019 166.193C502.019 168.631 501.107 170.567 499.281 172.001 497.604 173.339 495.381 174.009 492.614 174.009L492.074 174.009 489.435 174.009 487.173 174.009C485.112 174.009 483.405 173.602 482.051 172.79 480.638 173.602 478.916 174.009 476.884 174.009L474.003 174.009 471.939 174.009 469.102 174.009C467.1 174.009 465.437 173.626 464.112 172.861 462.582 174.104 460.536 174.726 457.975 174.726 455.443 174.726 453.412 174.116 451.881 172.897 450.498 173.638 448.834 174.009 446.891 174.009L444.326 174.009 441.946 174.009 439.381 174.009C438.704 174.009 437.997 173.949 437.261 173.829 436.584 176.961 434.685 179.112 431.565 180.283 430.329 180.761 428.989 181 427.547 181 425.604 181 423.705 180.582 421.851 179.745L421.851 175.228C423.381 175.921 424.868 176.267 426.311 176.267 427.046 176.267 427.724 176.172 428.342 175.981 430.137 175.479 431.035 174.14 431.035 171.965L431.035 160.636 437.438 157.875 437.438 157.911 437.482 157.875 437.482 167.519C437.629 168.499 438.468 168.989 439.999 168.989L441.946 168.989 444.326 168.989 446.273 168.989C447.215 168.989 447.878 168.834 448.26 168.523 448.643 168.213 448.834 167.675 448.834 166.91L448.834 165.906C448.834 163.062 449.747 160.863 451.572 159.309 453.191 157.923 455.325 157.23 457.975 157.23 461.007 157.23 463.347 158.126 464.995 159.919 466.408 161.448 467.13 163.444 467.159 165.906L467.159 166.91C467.159 167.699 467.343 168.242 467.711 168.541 468.079 168.84 468.734 168.989 469.676 168.989L471.939 168.989 474.003 168.989 476.266 168.989C477.208 168.989 477.87 168.834 478.253 168.523 478.636 168.213 478.827 167.675 478.827 166.91L478.827 160.636 485.23 157.875 485.23 166.91C485.23 167.675 485.421 168.213 485.804 168.523 486.186 168.834 486.849 168.989 487.791 168.989L489.435 168.989 492.074 168.989 492.305 168.989C493.541 168.989 494.402 168.78 494.888 168.362 495.374 167.944 495.617 167.209 495.617 166.157L495.617 153.644ZM340.248 150.884 340.248 166.91C340.248 167.675 340.44 168.213 340.823 168.523 341.205 168.834 341.868 168.989 342.81 168.989L345.302 168.989 347.843 168.989 351.705 168.989C350.851 167.675 350.424 166.372 350.424 165.081 350.424 162.667 351.293 160.731 353.03 159.273 354.649 157.911 356.753 157.23 359.344 157.23 362.288 157.23 364.584 158.102 366.232 159.847 367.586 161.257 368.263 163.002 368.263 165.081 368.263 166.372 367.837 167.675 366.983 168.989L371.129 168.989 373.341 168.989 375.457 168.989C376.399 168.989 377.061 168.834 377.444 168.523 377.827 168.213 378.018 167.675 378.018 166.91L378.018 160.636 384.42 157.875 384.42 167.125C384.42 169.348 383.567 171.093 381.859 172.359 380.358 173.459 378.43 174.009 376.075 174.009L373.341 174.009 371.129 174.009 363.141 174.009C361.64 174.009 360.374 173.913 359.344 173.722 358.284 173.913 357.018 174.009 355.547 174.009L347.843 174.009 345.302 174.009 342.898 174.009C341.838 174.009 340.793 173.877 339.763 173.614 338.997 175.957 337.393 177.785 334.95 179.1 332.771 180.271 330.225 180.857 327.311 180.857 322.983 180.857 319.642 179.721 317.287 177.451 315.492 175.682 314.594 173.602 314.594 171.212 314.594 169.396 315.094 167.782 316.095 166.372L322.409 165.225C321.291 166.755 320.731 168.499 320.731 170.459 320.731 172.132 321.313 173.447 322.476 174.403 323.638 175.359 325.25 175.837 327.311 175.837 329.312 175.837 330.895 175.377 332.057 174.457 333.22 173.537 333.802 172.288 333.802 170.71L333.802 153.644ZM296.052 150.884 296.052 174.009 289.65 174.009 289.65 153.644ZM264.393 150.884 264.393 166.91C264.393 167.675 264.584 168.213 264.967 168.523 265.35 168.834 266.012 168.989 266.954 168.989L268.654 168.989 271.281 168.989 272.981 168.989C273.923 168.989 274.585 168.834 274.968 168.523 275.351 168.213 275.542 167.675 275.542 166.91L275.542 160.636 281.945 157.875 281.945 167.125C281.945 169.348 281.091 171.093 279.384 172.359 277.912 173.459 275.984 174.009 273.599 174.009L271.281 174.009 268.654 174.009 266.336 174.009C263.628 174.009 261.508 173.304 259.978 171.893 258.653 170.651 257.991 169.061 257.991 167.125L257.991 153.644ZM363.009 149.916C363.98 149.916 364.768 150.155 365.371 150.633 365.975 151.111 366.276 151.744 366.276 152.533 366.276 153.369 365.975 154.033 365.371 154.523 364.768 155.013 363.98 155.258 363.009 155.258 362.008 155.258 361.213 155.007 360.624 154.505 360.036 154.003 359.741 153.346 359.741 152.533 359.741 151.744 360.036 151.111 360.624 150.633 361.213 150.155 362.008 149.916 363.009 149.916ZM355.679 149.916C356.65 149.916 357.43 150.155 358.019 150.633 358.608 151.111 358.902 151.744 358.902 152.533 358.902 153.369 358.608 154.033 358.019 154.523 357.43 155.013 356.65 155.258 355.679 155.258 354.678 155.258 353.876 155.007 353.272 154.505 352.669 154.003 352.367 153.346 352.367 152.533 352.367 151.744 352.669 151.111 353.272 150.633 353.876 150.155 354.678 149.916 355.679 149.916ZM481.962 149.306C482.934 149.306 483.714 149.545 484.303 150.023 484.891 150.501 485.186 151.147 485.186 151.959 485.186 152.772 484.891 153.423 484.303 153.913 483.714 154.403 482.934 154.648 481.962 154.648 480.961 154.648 480.159 154.403 479.556 153.913 478.952 153.423 478.651 152.772 478.651 151.959 478.651 151.147 478.952 150.501 479.556 150.023 480.159 149.545 480.961 149.306 481.962 149.306ZM381.462 149.306C382.433 149.306 383.214 149.545 383.802 150.023 384.391 150.501 384.685 151.147 384.685 151.959 384.685 152.772 384.391 153.423 383.802 153.913 383.214 154.403 382.433 154.648 381.462 154.648 380.461 154.648 379.659 154.403 379.056 153.913 378.452 153.423 378.15 152.772 378.15 151.959 378.15 151.147 378.452 150.501 379.056 150.023 379.659 149.545 380.461 149.306 381.462 149.306ZM278.942 149.306C279.914 149.306 280.701 149.545 281.305 150.023 281.908 150.501 282.21 151.135 282.21 151.923 282.21 152.76 281.915 153.423 281.327 153.913 280.738 154.403 279.943 154.648 278.942 154.648 277.971 154.648 277.183 154.397 276.58 153.895 275.976 153.393 275.675 152.736 275.675 151.923 275.675 151.135 275.976 150.501 276.58 150.023 277.183 149.545 277.971 149.306 278.942 149.306ZM271.612 149.306C272.584 149.306 273.364 149.545 273.953 150.023 274.541 150.501 274.836 151.135 274.836 151.923 274.836 152.76 274.541 153.423 273.953 153.913 273.364 154.403 272.584 154.648 271.612 154.648 270.611 154.648 269.809 154.397 269.206 153.895 268.602 153.393 268.301 152.736 268.301 151.923 268.301 151.135 268.602 150.501 269.206 150.023 269.809 149.545 270.611 149.306 271.612 149.306ZM234.868 146.653C235.78 146.653 236.509 146.874 237.053 147.316 237.598 147.759 237.87 148.338 237.87 149.055 237.87 150.704 236.869 151.529 234.868 151.529 233.955 151.529 233.226 151.302 232.682 150.848 232.137 150.394 231.865 149.796 231.865 149.055 231.865 148.338 232.137 147.759 232.682 147.316 233.226 146.874 233.955 146.653 234.868 146.653ZM275.233 144C277.205 144 278.192 144.801 278.192 146.402 278.192 148.027 277.205 148.84 275.233 148.84 273.261 148.84 272.275 148.027 272.275 146.402 272.275 144.801 273.261 144 275.233 144Z" fill="#FF5B04" fill-rule="evenodd"/></g></svg>